<?xml version="1.0" standalone="no"?>
<!DOCTYPE svg PUBLIC "-//W3C//DTD SVG 20010904//EN"
 "http://www.w3.org/TR/2001/REC-SVG-20010904/DTD/svg10.dtd">
<svg version="1.0" xmlns="http://www.w3.org/2000/svg"
 width="500.000000pt" height="500.000000pt" viewBox="0 0 500.000000 500.000000"
 preserveAspectRatio="xMidYMid meet">
<metadata>
Created by potrace 1.16, written by Peter Selinger 2001-2019
</metadata>
<g transform="translate(0.000000,500.000000) scale(0.100000,-0.100000)"
fill="#000000" stroke="none">
<path d="M2896 3301 c-4 -5 -2 -40 4 -78 5 -37 10 -99 10 -138 0 -71 17 -254
46 -490 23 -188 66 -261 129 -219 25 16 55 107 55 165 0 36 48 270 77 376 15
53 20 60 34 52 10 -5 25 -6 34 -3 23 9 15 46 -13 60 -21 10 -19 13 37 38 32
14 63 26 68 26 6 0 13 -53 16 -121 l6 -120 -35 -49 c-31 -44 -51 -60 -74 -60
-16 0 -32 70 -25 109 4 26 2 41 -5 46 -32 20 -41 -88 -12 -145 26 -53 54 -52
107 4 l44 45 6 -47 c14 -116 21 -146 34 -150 11 -4 13 5 7 44 -10 82 -25 297
-22 324 2 14 4 50 5 81 l1 56 75 20 c41 12 84 19 95 16 15 -4 20 0 20 16 0 17
-6 21 -32 21 -18 0 -58 -7 -88 -15 -30 -8 -56 -15 -57 -15 -2 0 -3 12 -3 26 0
21 -4 25 -22 22 -17 -2 -24 -11 -26 -30 -3 -22 -13 -32 -47 -47 -84 -37 -88
-37 -80 -1 6 29 5 31 -17 28 -18 -2 -25 -12 -33 -43 -5 -22 -21 -50 -35 -63
-24 -21 -24 -23 -7 -36 17 -13 17 -21 8 -88 -14 -101 -70 -351 -82 -362 -5 -6
-9 -25 -9 -43 0 -19 -7 -50 -15 -70 -15 -35 -16 -35 -30 -17 -8 10 -15 27 -15
36 0 10 -9 44 -20 75 -24 72 -40 234 -40 423 0 204 -23 350 -55 350 -8 0 -16
-4 -19 -9z"/>
<path d="M1959 3150 c-31 -10 -71 -25 -87 -34 -17 -9 -38 -13 -46 -10 -10 4
-21 -4 -32 -22 -10 -16 -35 -43 -58 -59 -50 -38 -153 -159 -172 -203 -7 -18
-20 -39 -27 -47 -8 -7 -27 -53 -42 -101 -36 -118 -28 -173 28 -174 23 0 22 36
-2 43 -16 4 -18 12 -14 53 5 50 49 164 63 164 4 0 11 11 14 25 3 13 22 42 42
62 19 21 52 56 72 78 84 90 77 106 75 -179 -2 -225 -4 -252 -19 -261 -43 -25
-84 -69 -84 -89 0 -30 30 -56 73 -63 20 -3 37 -12 40 -22 3 -9 8 -24 12 -34 6
-15 4 -17 -19 -11 -14 3 -32 2 -39 -3 -6 -5 -45 -9 -86 -8 -55 0 -76 4 -81 15
-7 14 -12 26 -39 93 -5 12 -19 43 -30 68 -12 25 -21 51 -21 57 0 16 -50 121
-61 128 -5 3 -7 10 -4 15 4 5 1 9 -5 9 -11 0 -30 40 -36 75 -8 50 -15 69 -30
86 -10 11 -14 22 -11 25 3 4 0 19 -8 34 -12 23 -24 28 -87 39 -40 7 -91 16
-113 21 -22 5 -51 11 -65 14 -38 8 -52 -6 -48 -50 2 -29 8 -40 23 -43 17 -3
17 -1 6 12 -11 14 -9 15 11 12 13 -3 45 -11 72 -19 27 -8 53 -13 58 -10 5 3
25 0 44 -6 28 -10 40 -22 55 -56 11 -24 24 -46 28 -49 5 -3 19 -38 31 -78 23
-76 25 -84 59 -159 12 -26 21 -52 21 -56 0 -5 14 -36 30 -70 17 -34 30 -67 30
-73 0 -5 7 -24 16 -42 l17 -31 -39 -34 c-22 -18 -55 -44 -74 -56 -66 -43 -69
-137 -6 -178 29 -19 31 -25 31 -76 0 -47 4 -57 26 -74 33 -25 77 -30 110 -12
33 16 42 37 41 92 l0 42 431 0 c335 0 428 -3 419 -12 -16 -16 -15 -53 3 -88
19 -37 45 -46 120 -41 8 1 27 20 41 43 26 40 26 44 11 70 -14 25 -14 29 -1 36
9 5 14 19 12 33 l-3 24 -591 5 c-601 5 -624 7 -624 41 0 29 173 153 200 144
10 -3 30 -1 46 5 16 7 71 13 123 15 52 2 138 9 190 15 147 16 283 29 311 29
14 0 41 2 60 5 19 3 78 8 130 11 52 4 111 10 132 16 31 8 35 13 30 32 -3 12
-9 25 -14 28 -11 7 -146 2 -198 -7 -19 -3 -66 -7 -105 -8 -38 -2 -110 -8 -160
-14 -49 -6 -117 -14 -150 -16 -33 -3 -86 -8 -117 -12 -54 -6 -58 -5 -58 14 0
11 -2 26 -5 34 -3 8 12 21 44 36 27 12 52 22 55 22 4 0 35 19 68 41 51 35 64
40 79 30 28 -17 39 -13 39 14 0 16 -6 25 -15 25 -22 0 -19 7 32 65 129 146
203 363 162 472 -20 54 -62 104 -105 124 -55 25 -159 24 -235 -1z m208 -41
c27 -13 54 -37 69 -60 21 -34 24 -50 24 -128 0 -67 -5 -105 -21 -146 -24 -66
-103 -186 -151 -232 -33 -31 -34 -31 -153 -35 l-120 -3 -3 135 c-3 118 9 302
24 381 6 31 40 52 136 84 91 30 139 31 195 4z"/>
<path d="M3708 2933 c-9 -10 -26 -39 -38 -65 -12 -26 -31 -50 -41 -53 -23 -8
-49 10 -49 34 0 10 -6 26 -14 37 -14 18 -16 16 -37 -31 -12 -27 -24 -45 -26
-38 -2 6 5 30 17 53 18 35 25 41 46 37 15 -3 24 0 24 9 0 16 -32 27 -53 18
-27 -10 -58 -70 -60 -116 -2 -37 1 -43 19 -46 16 -2 25 5 34 27 12 30 30 42
30 21 0 -5 11 -17 25 -26 23 -15 27 -15 60 5 33 19 38 20 60 5 20 -13 27 -13
57 -1 37 16 95 73 85 84 -4 3 -23 -10 -44 -30 -25 -25 -45 -37 -65 -37 -44 0
-45 25 -3 64 20 20 35 41 33 48 -7 20 -42 21 -60 1z"/>
<path d="M2635 2810 c-27 -27 -51 -47 -54 -45 -2 3 -5 21 -5 42 -3 65 -35 44
-36 -23 0 -11 -16 -36 -36 -55 -33 -32 -36 -33 -48 -16 -8 9 -16 35 -20 57 -3
22 -10 40 -15 40 -5 0 -24 -25 -41 -55 -17 -30 -36 -55 -41 -55 -10 0 -3 56
12 96 8 22 3 34 -13 34 -28 0 -50 -134 -26 -158 21 -21 37 -13 67 35 l29 47
16 -37 c19 -46 50 -49 98 -9 l33 27 -19 -30 c-11 -16 -25 -39 -33 -50 -7 -11
-13 -25 -13 -32 0 -23 17 -14 30 16 6 16 20 37 30 46 18 16 20 16 35 1 34 -33
100 -8 150 58 42 55 24 53 -33 -5 -53 -53 -84 -61 -106 -27 -9 15 -1 27 47 76
31 32 57 61 57 65 0 16 -19 4 -65 -43z"/>
</g>
</svg>
