<?xml version="1.0" standalone="no"?>
<!DOCTYPE svg PUBLIC "-//W3C//DTD SVG 20010904//EN"
 "http://www.w3.org/TR/2001/REC-SVG-20010904/DTD/svg10.dtd">
<svg version="1.0" xmlns="http://www.w3.org/2000/svg"
 width="500.000000pt" height="500.000000pt" viewBox="0 0 500.000000 500.000000"
 preserveAspectRatio="xMidYMid meet">
<metadata>
Created by potrace 1.16, written by Peter Selinger 2001-2019
</metadata>
<g transform="translate(0.000000,500.000000) scale(0.100000,-0.100000)"
fill="#FFFFFF" stroke="none">
<path d="M2320 3994 c-95 -19 -228 -61 -308 -99 -328 -155 -570 -468 -638
-823 -19 -98 -18 -309 1 -411 56 -293 210 -542 440 -714 103 -78 276 -161 401
-193 135 -35 361 -44 485 -20 311 63 560 223 740 479 137 194 199 395 199 643
0 315 -108 586 -321 804 -41 41 -74 78 -74 82 0 17 -36 48 -56 48 -11 0 -40
14 -64 30 -69 47 -221 117 -320 146 -81 24 -109 27 -275 30 -102 1 -196 0
-210 -2z m218 -511 l-3 -326 -109 -57 c-72 -37 -113 -65 -122 -82 -9 -17 -25
-28 -48 -32 -50 -10 -60 -27 -53 -94 6 -53 3 -63 -33 -132 -95 -181 -240 -470
-235 -470 2 0 98 49 212 109 459 240 485 252 499 233 8 -9 14 -20 14 -24 0 -5
19 -21 42 -38 47 -34 109 -40 146 -14 34 24 25 54 -25 82 -29 16 -45 33 -53
57 -6 19 -20 37 -31 40 -11 4 -19 10 -17 13 2 4 19 37 38 75 l34 67 329 0 330
0 -7 -82 c-24 -281 -145 -512 -358 -682 -171 -137 -372 -207 -598 -208 -376
-2 -713 226 -863 582 -52 125 -71 223 -71 370 0 157 25 265 94 405 94 193 241
340 435 435 133 65 253 96 388 99 l67 1 -2 -327z m152 303 c310 -55 594 -305
702 -616 22 -64 48 -180 48 -216 l0 -24 -310 0 c-170 0 -310 4 -310 8 0 4 4
12 9 17 5 6 59 110 120 232 92 184 116 225 144 242 35 21 57 57 57 91 0 25
-17 26 -24 2 -4 -10 -24 -28 -45 -40 -82 -47 -188 -37 -248 23 -18 18 -35 30
-37 27 -10 -9 7 -57 28 -80 30 -34 54 -44 115 -51 l54 -6 -200 -102 c-110 -57
-203 -103 -207 -103 -3 0 -6 137 -6 305 0 284 1 305 18 305 9 -1 51 -7 92 -14z
m-152 -863 c3 -29 7 -33 33 -33 25 0 29 -4 29 -26 0 -78 -94 -131 -150 -86
-20 16 -22 22 -12 53 6 19 12 52 14 74 4 47 13 56 53 53 26 -3 30 -7 33 -35z"/>
<path d="M2089 3538 c-15 -52 -45 -88 -74 -88 -12 0 -29 -8 -38 -18 -36 -40
-11 -95 43 -95 52 0 82 62 45 93 -14 12 -13 15 4 34 11 12 24 39 29 61 l8 39
21 -34 c31 -51 39 -90 19 -90 -26 0 -40 -48 -22 -76 35 -52 106 -33 106 29 0
37 -15 57 -42 57 -11 0 -18 7 -18 18 0 17 -54 112 -64 112 -3 0 -11 -19 -17
-42z"/>
<path d="M1852 3373 c-1 -18 -8 -34 -14 -34 -7 -1 -35 -2 -63 -3 -44 -1 -50
-4 -53 -24 -2 -13 3 -25 12 -28 9 -3 16 -15 16 -25 0 -10 5 -19 10 -19 6 0 10
-9 10 -20 0 -11 7 -23 15 -26 8 -4 12 -10 9 -16 -3 -5 1 -17 9 -26 7 -9 17
-25 20 -34 10 -29 44 -21 61 14 9 17 16 35 16 40 0 5 7 16 16 25 8 9 13 21 10
28 -3 8 2 16 10 19 8 3 14 11 14 17 0 7 7 21 16 31 27 29 3 48 -56 44 l-49 -4
-4 37 c-4 36 -4 36 -5 4z"/>
<path d="M1869 2668 c16 -21 12 -22 -23 -8 -23 8 -26 7 -26 -11 0 -18 -2 -20
-16 -8 -13 10 -17 10 -25 -2 -8 -12 -11 -11 -22 3 -13 16 -15 16 -30 0 -16
-15 -17 -15 -17 2 0 15 -5 17 -26 12 -19 -5 -24 -4 -18 6 4 7 -1 6 -10 -3 -25
-23 -31 -81 -12 -121 22 -45 69 -72 128 -72 58 0 95 24 122 78 16 32 17 44 7
76 -6 21 -19 44 -29 51 -15 13 -16 12 -3 -3z"/>
<path d="M2310 2261 l0 -39 -44 5 c-35 4 -48 1 -65 -16 -26 -26 -27 -56 -1
-124 29 -78 42 -87 125 -84 l70 2 29 58 c55 109 35 172 -51 165 l-43 -3 0 37
c0 21 -4 38 -10 38 -5 0 -10 -17 -10 -39z"/>
<path d="M2706 1672 c-3 -5 -5 -76 -5 -158 -1 -82 -4 -180 -7 -219 -7 -76 9
-212 29 -254 8 -18 20 -26 37 -26 24 0 29 12 97 215 39 118 72 207 72 198 1
-10 8 -18 16 -18 22 0 20 50 -2 51 -21 1 44 27 70 28 16 1 17 -7 11 -81 -6
-77 -9 -86 -40 -118 -29 -29 -36 -33 -45 -20 -5 8 -7 34 -4 57 7 45 -8 65 -24
34 -25 -45 -2 -131 34 -131 7 0 27 12 44 26 l31 26 0 -66 c0 -52 3 -66 15 -66
12 0 15 19 15 114 0 62 3 141 6 174 8 69 10 71 93 75 35 1 51 6 51 16 0 10
-14 12 -60 9 -53 -4 -60 -2 -60 14 0 26 -29 22 -36 -5 -4 -18 -16 -26 -50 -34
-42 -10 -45 -9 -42 10 2 11 -3 22 -9 24 -7 3 -13 0 -13 -5 0 -5 -11 -26 -25
-46 -13 -20 -22 -42 -19 -50 6 -15 -110 -384 -125 -399 -5 -5 -14 16 -21 49
-9 42 -10 125 -5 300 4 133 4 251 0 263 -6 21 -20 27 -29 13z"/>
<path d="M2060 1639 c-25 -4 -57 -12 -72 -18 -15 -6 -35 -8 -43 -5 -8 4 -15 2
-15 -4 0 -5 -31 -32 -68 -59 -114 -83 -215 -240 -198 -308 6 -24 46 -37 46
-15 0 6 -4 10 -10 10 -17 0 -10 53 13 97 29 55 102 142 152 181 22 17 40 30
41 29 1 -1 -4 -33 -12 -72 -7 -38 -16 -118 -20 -177 l-7 -108 -36 -17 c-49
-24 -50 -61 -4 -83 18 -8 35 -23 39 -32 7 -24 24 -23 24 1 0 14 11 23 38 32
20 6 58 22 85 36 31 15 56 21 72 17 24 -6 35 8 16 20 -5 3 17 33 49 65 75 77
114 155 118 241 6 131 -69 192 -208 169z m149 -64 c23 -22 26 -34 26 -93 0
-56 -6 -77 -33 -128 -18 -33 -56 -83 -83 -110 l-50 -49 -85 0 -86 0 7 90 c6
83 29 238 40 276 5 15 89 45 145 52 43 5 92 -11 119 -38z"/>
<path d="M2262 1365 c-14 -31 -16 -92 -3 -99 15 -10 36 3 52 30 l16 26 7 -26
c5 -19 13 -26 32 -26 21 0 23 -3 14 -19 -13 -25 -13 -31 1 -31 6 0 20 12 31
26 15 18 24 22 31 15 20 -20 62 -11 100 20 55 45 47 67 -9 24 -50 -38 -59 -41
-70 -23 -5 7 11 28 40 54 57 50 47 67 -14 23 l-42 -30 4 27 c4 39 -21 43 -28
5 -8 -38 -53 -79 -66 -59 -4 7 -8 25 -8 41 0 36 -13 34 -45 -5 -15 -18 -24
-25 -21 -15 17 52 18 67 4 67 -8 0 -20 -11 -26 -25z"/>
<path d="M3090 1348 c-27 -45 -27 -88 0 -88 11 0 23 7 27 15 5 14 8 14 25 -2
16 -14 24 -15 48 -6 18 7 32 7 36 2 12 -19 64 -9 96 20 44 39 30 49 -21 15
-34 -22 -44 -25 -54 -14 -9 10 -9 14 1 17 22 8 43 35 40 52 -6 30 -41 17 -71
-26 -15 -24 -34 -43 -42 -43 -19 0 -31 40 -15 50 20 13 3 40 -25 40 -18 0 -31
-10 -45 -32z"/>
</g>
</svg>
